HIERARCHY
ROOT Hips
{
	OFFSET -29.380051 91.728088 330.575287
	CHANNELS 6 Xposition Yposition Zposition Zrotation Yrotation Xrotation 
	JOINT LeftUpLeg
	{
		OFFSET 0.103456 1.857840 10.548504
		CHANNELS 3 Zrotation Yrotation Xrotation
		JOINT LeftLeg
		{
			OFFSET 43.500004 -0.000034 -0.000008
			CHANNELS 3 Zrotation Yrotation Xrotation
			JOINT LeftFoot
			{
				OFFSET 42.372196 0.000008 -0.000002
				CHANNELS 3 Zrotation Yrotation Xrotation
				JOINT LeftToe
				{
					OFFSET 17.300014 0.000003 0.000004
					CHANNELS 3 Zrotation Yrotation Xrotation
					End Site
					{
						OFFSET 0.000000 0.000000 0.000000
					}
				}
			}
		}
	}
	JOINT RightUpLeg
	{
		OFFSET 0.103459 1.857840 -10.548506
		CHANNELS 3 Zrotation Yrotation Xrotation
		JOINT RightLeg
		{
			OFFSET 43.500042 -0.000034 0.000008
			CHANNELS 3 Zrotation Yrotation Xrotation
			JOINT RightFoot
			{
				OFFSET 42.372265 -0.000015 0.000013
				CHANNELS 3 Zrotation Yrotation Xrotation
				JOINT RightToe
				{
					OFFSET 17.299982 -0.000008 0.000011
					CHANNELS 3 Zrotation Yrotation Xrotation
					End Site
					{
						OFFSET 0.000000 0.000000 0.000000
					}
				}
			}
		}
	}
	JOINT Spine
	{
		OFFSET 6.901965 -2.603744 0.000002
		CHANNELS 3 Zrotation Yrotation Xrotation
		JOINT Spine1
		{
			OFFSET 12.588102 0.000003 0.000000
			CHANNELS 3 Zrotation Yrotation Xrotation
			JOINT Spine2
			{
				OFFSET 12.343206 -0.000003 0.000000
				CHANNELS 3 Zrotation Yrotation Xrotation
				JOINT Neck
				{
					OFFSET 25.832899 0.000011 -0.000003
					CHANNELS 3 Zrotation Yrotation Xrotation
					JOINT Head
					{
						OFFSET 11.766600 0.000020 0.000002
						CHANNELS 3 Zrotation Yrotation Xrotation
						End Site
						{
							OFFSET 0.000000 0.000000 0.000000
						}
					}
				}
				JOINT LeftShoulder
				{
					OFFSET 19.745911 -1.480356 6.000103
					CHANNELS 3 Zrotation Yrotation Xrotation
					JOINT LeftArm
					{
						OFFSET 11.284127 -0.000002 -0.000032
						CHANNELS 3 Zrotation Yrotation Xrotation
						JOINT LeftForeArm
						{
							OFFSET 33.000050 0.000004 0.000036
							CHANNELS 3 Zrotation Yrotation Xrotation
							JOINT LeftHand
							{
								OFFSET 25.200010 -0.000005 -0.000001
								CHANNELS 3 Zrotation Yrotation Xrotation
								End Site
								{
									OFFSET 0.000000 0.000000 0.000000
								}
							}
						}
					}
				}
				JOINT RightShoulder
				{
					OFFSET 19.746094 -1.480362 -6.000076
					CHANNELS 3 Zrotation Yrotation Xrotation
					JOINT RightArm
					{
						OFFSET 11.284138 -0.000014 -0.000009
						CHANNELS 3 Zrotation Yrotation Xrotation
						JOINT RightForeArm
						{
							OFFSET 33.000099 0.000006 0.000015
							CHANNELS 3 Zrotation Yrotation Xrotation
							JOINT RightHand
							{
								OFFSET 25.199768 0.000152 0.000415
								CHANNELS 3 Zrotation Yrotation Xrotation
								End Site
								{
									OFFSET 0.000000 0.000000 0.000000
								}
							}
						}
					}
				}
			}
		}
	}
}
MOTION
Frames: 8
Frame Time: 0.033333
11.227510 90.814583 549.042603 97.521379 5.031570 149.792974 -179.002633 2.199008 168.343058 -25.564232 -1.545623 -3.839985 90.967478 3.153166 3.517097 21.454553 0.003089 -0.000000 164.500352 1.706403 177.585069 -68.738334 1.656852 11.870568 74.635601 -7.138073 4.850062 21.454568 -0.003101 -0.000019 8.079255 -0.883842 -0.648757 6.156515 -1.732105 -1.343559 5.838339 -1.740044 -1.333073 -10.447214 -9.734047 -9.140021 -18.094609 2.390068 -13.627962 179.790045 -75.468092 -1.175722 -26.678932 50.848952 -10.458670 -58.579527 -19.577441 2.358367 5.651150 -0.824398 -30.597212 138.380097 75.906672 -41.044594 -6.674367 -57.760697 -15.241291 -46.690886 13.509600 -1.577632 9.703130 9.544496 -5.438407 
14.979930 90.954681 550.915100 96.646514 5.006270 150.244996 -175.535015 1.734412 168.922094 -22.783312 -2.453877 -3.511471 91.722959 2.911950 3.426924 21.454551 0.003090 -0.000000 161.646358 -0.614396 175.240442 -61.133875 3.020615 12.381477 77.446627 -7.473170 5.496456 21.454565 -0.003104 -0.000019 7.847580 -0.523379 -1.247117 5.693353 -0.985136 -2.518409 5.375540 -1.000190 -2.512415 -11.416001 -8.479404 -8.584913 -17.671453 2.162083 -12.554733 178.306992 -76.212624 0.325200 -29.598382 48.544910 -13.192064 -60.194805 -19.271222 2.398258 5.540922 -1.358771 -28.466468 140.334515 75.833070 -39.068412 -0.388625 -60.304854 -24.552959 -40.618391 12.571271 -1.343162 11.167222 7.107745 -4.982905 
18.876020 90.832520 552.730591 95.650584 4.906821 150.595945 -172.419315 1.448595 170.015184 -20.439408 -3.198606 -3.588526 92.588835 2.913190 3.122343 21.454553 0.003091 0.000000 159.479685 -2.317900 173.512773 -50.982892 4.163051 13.381012 78.254707 -8.101252 6.183694 21.454558 -0.003114 -0.000018 7.601575 -0.166877 -1.787682 5.194287 -0.253914 -3.581008 4.876858 -0.275388 -3.579404 -12.493423 -6.580502 -8.055574 -17.621898 1.647766 -11.152621 177.223970 -77.136379 1.408658 -31.418942 46.129107 -14.915420 -61.586224 -19.102967 2.440062 5.456551 -1.365611 -27.831947 142.476312 75.719682 -36.903256 7.533590 -61.732807 -34.535117 -35.038379 11.697141 -1.148650 12.296304 3.643044 -6.904810 
22.837500 90.521133 554.491516 94.698640 4.754720 150.961060 -169.593051 1.319504 171.547154 -18.625455 -3.741963 -3.943096 93.507769 3.080617 2.649086 21.454558 0.003094 0.000001 158.540425 -3.278897 172.242399 -38.317218 4.906562 14.066423 76.845871 -8.394118 6.926388 21.454558 -0.003110 -0.000019 7.394249 0.152691 -2.234413 4.767998 0.396521 -4.460693 4.450926 0.369742 -4.462998 -13.521854 -3.944780 -7.571050 -17.988253 1.003728 -9.428457 176.777945 -78.077771 1.839185 -32.900362 44.070204 -16.936320 -62.732385 -19.040564 2.480360 5.527740 -1.189388 -28.192632 144.633914 75.434399 -34.732694 16.564003 -62.030193 -44.382340 -30.264124 11.199659 -1.015887 13.125396 0.566660 -10.220588 
26.875759 89.996552 556.218811 93.894030 4.570537 151.198982 -166.768631 1.261703 172.682386 -17.173259 -4.175498 -4.090335 94.484322 3.119783 2.213271 21.454555 0.003091 0.000000 158.406772 -4.045699 170.786749 -24.594229 4.928047 14.377219 74.155931 -8.579312 6.819799 21.454558 -0.003107 -0.000016 7.234290 0.425274 -2.522353 4.435177 0.945959 -5.026851 4.118358 0.915759 -5.032452 -14.380354 -0.666595 -7.066165 -18.442858 0.441516 -7.401704 176.640986 -78.764321 1.961008 -34.264716 42.302811 -19.373236 -63.332123 -19.000466 2.501145 5.729517 -0.947563 -28.764041 146.529401 74.971367 -32.838426 25.669780 -61.382227 -53.207505 -26.194474 11.111611 -0.937524 13.821148 -1.336645 -12.568690 
31.014919 89.272217 558.004578 93.349739 4.519409 150.838990 -163.786078 1.282397 172.802051 -16.319376 -4.469368 -3.946996 95.205419 2.969937 1.693516 21.454550 0.003092 -0.000000 158.189066 -4.323501 169.272838 -13.260740 4.731257 13.799800 71.731118 -7.415725 9.084513 21.454562 -0.003108 -0.000015 7.143218 0.682470 -2.587870 4.241215 1.458304 -5.149628 3.924386 1.427362 -5.158313 -14.970077 2.735991 -6.343136 -18.614397 0.184854 -5.175668 176.917978 -79.219205 1.667776 -35.295050 40.820404 -21.205203 -62.983531 -19.038638 2.490072 6.000127 -0.601887 -29.954078 147.664441 74.464532 -31.718589 33.558485 -60.184267 -59.924043 -22.762311 11.229990 -0.893353 14.452310 -2.530431 -13.135359 
35.537560 87.962669 559.976379 93.596951 4.387133 149.904047 -160.677058 1.938903 172.190162 -17.268258 -4.495633 -3.537400 96.171898 2.616304 0.904233 21.454553 0.003092 0.000001 157.140550 -4.452189 169.867419 -11.149266 5.048671 12.410927 76.333347 -5.379174 14.225880 21.454558 -0.003117 -0.000017 7.153474 0.881701 -2.552038 4.253592 1.855616 -5.070900 3.936668 1.825129 -5.081976 -15.131220 5.688771 -5.180042 -18.491457 0.166321 -2.784352 178.116963 -79.581136 0.438465 -35.374086 39.872667 -21.469704 -61.635969 -19.247666 2.452010 6.241500 -0.138773 -32.423700 147.776907 74.062938 -31.631958 39.402863 -58.601001 -64.163262 -20.206176 11.407720 -0.871919 14.876500 -3.702953 -13.039140 
39.879280 86.989960 562.023071 93.490359 5.441038 149.366948 -157.676597 1.386304 171.392027 -18.569717 -4.011231 -2.806135 96.016361 1.998532 -0.468648 21.454548 0.003091 -0.000001 155.974091 -6.035199 173.479442 -16.759944 5.229726 11.684236 75.502270 -4.355078 15.738643 21.454560 -0.003111 -0.000014 7.212688 1.374873 -2.609098 4.349695 2.845829 -5.166724 4.032585 2.814752 -5.183755 -14.644815 8.119859 -3.709159 -18.259619 -0.159853 -0.235336 179.363035 -79.873229 -0.834285 -33.936785 40.094477 -19.899534 -59.630208 -19.611341 2.400283 6.414596 0.288768 -35.621301 147.608038 73.878263 -31.816998 42.263728 -57.134498 -65.610988 -18.876778 11.556561 -0.866328 14.845746 -4.488426 -13.074460 
